<?xml version="1.0" encoding="utf-8"?>
<!-- Generator: Adobe Illustrator 22.1.0, SVG Export Plug-In . SVG Version: 6.00 Build 0)  -->
<svg version="1.1" id="Layer_1" xmlns="http://www.w3.org/2000/svg" xmlns:xlink="http://www.w3.org/1999/xlink" x="0px" y="0px"
	 viewBox="0 0 160 21" style="enable-background:new 0 0 160 21;" xml:space="preserve">
<style type="text/css">
	.st0{enable-background:new    ;}
	.st1{fill:#626FE4;}
	.st2{fill:#FFFFFF;}
</style>
<g class="st0">
	<path class="st1" d="M15.8,21l-1.6-5.1H6.4L4.9,21H0L7.6-0.5h5.6L20.7,21H15.8z M13.2,12.1c-1.4-4.6-2.2-7.2-2.4-7.8
		s-0.3-1.1-0.4-1.4C10,4.1,9.1,7.2,7.6,12.1H13.2z"/>
	<path class="st1" d="M32.5,3.1c-1.7,0-3,0.6-4,1.9s-1.4,3.1-1.4,5.4c0,4.8,1.8,7.2,5.4,7.2c1.5,0,3.3-0.4,5.5-1.1v3.8
		c-1.8,0.7-3.7,1.1-5.9,1.1c-3.1,0-5.5-0.9-7.1-2.8c-1.7-1.9-2.5-4.6-2.5-8.1c0-2.2,0.4-4.2,1.2-5.9c0.8-1.7,2-3,3.5-3.9
		c1.5-0.9,3.3-1.3,5.3-1.3c2.1,0,4.2,0.5,6.3,1.5l-1.5,3.7c-0.8-0.4-1.6-0.7-2.4-1S33.3,3.1,32.5,3.1z"/>
	<path class="st1" d="M50.8,21h-4.5V3.4h-5.8v-3.8h16.2v3.8h-5.8V21z"/>
	<path class="st1" d="M59.9,21V-0.4h4.5V21H59.9z"/>
	<path class="st1" d="M82-0.4h4.6L79.3,21h-5L67.1-0.4h4.6l4,12.7c0.2,0.8,0.5,1.6,0.7,2.6c0.2,1,0.4,1.7,0.4,2.1
		c0.1-0.9,0.5-2.5,1.1-4.7L82-0.4z"/>
	<path class="st1" d="M101.6,21H89.3V-0.4h12.3v3.7h-7.8V8h7.3v3.7h-7.3v5.5h7.8V21z"/>
</g>
<g class="st0">
	<path class="st2" d="M106.4,21V-0.4h2.5v19.2h9.4V21H106.4z"/>
	<path class="st2" d="M121.9,21V-0.4h2.5V21H121.9z"/>
	<path class="st2" d="M142.5-0.4h2.7L137.5,21H135l-7.7-21.4h2.6l4.9,13.9c0.6,1.6,1,3.1,1.3,4.6c0.4-1.6,0.8-3.2,1.4-4.7L142.5-0.4
		z"/>
	<path class="st2" d="M160.1,21h-11.9V-0.4h11.9v2.2h-9.4v6.9h8.9v2.2h-8.9v7.9h9.4V21z"/>
</g>
</svg>
